<svg xmlns="http://www.w3.org/2000/svg" viewBox="0 0 29 29" shape-rendering="crispEdges"><path fill="#ffffff" d="M0 0h29v29H0z"/><path stroke="#111111" d="M0 0.5h8m2 0h1m2 0h1m2 0h2m1 0h2m1 0h7M0 1.5h1m5 0h1m1 0h1m1 0h1m2 0h1m1 0h2m1 0h1m2 0h2m5 0h1M0 2.5h1m1 0h3m1 0h1m1 0h1m2 0h1m1 0h1m1 0h1m1 0h1m1 0h1m2 0h1m1 0h3m1 0h1M0 3.5h1m1 0h3m1 0h2m1 0h1m1 0h1m1 0h1m1 0h1m2 0h1m1 0h1m1 0h1m1 0h3m1 0h1M0 4.5h1m1 0h3m1 0h1m2 0h1m1 0h1m2 0h1m1 0h1m1 0h2m1 0h2m1 0h3m1 0h1M0 5.5h1m5 0h1m1 0h1m2 0h1m2 0h1m2 0h1m2 0h1m1 0h1m5 0h1M0 6.5h9m1 0h1m1 0h1m1 0h1m1 0h1m1 0h1m1 0h1m1 0h7M0 7.5h2m3 0h2m3 0h2m3 0h2m3 0h2m3 0h2M1 8.5h3m2 0h1m1 0h4m4 0h4m4 0h3M4 9.5h2m1 0h5m8 0h8M6 10.5h1m10 0h12M0 11.5h6m7 0h6m6 0h4M0 12.5h2m4 0h3m4 0h3m3 0h3m4 0h3M0 13.5h1m2 0h3m2 0h2m3 0h2m2 0h2m3 0h2m2 0h2M2 14.5h2m2 0h1m2 0h2m2 0h1m2 0h2m1 0h2m2 0h1m2 0h2M1 15.5h2m1 0h1m2 0h1m2 0h1m1 0h2m1 0h2m1 0h1m2 0h1m2 0h1m1 0h2M1 16.5h1m1 0h1m1 0h2m1 0h1m1 0h1m1 0h2m1 0h1m1 0h1m1 0h2m1 0h1m1 0h1m1 0h2M0 17.5h1m1 0h1m1 0h1m3 0h1m1 0h1m1 0h1m1 0h1m1 0h1m1 0h1m1 0h1m1 0h1m1 0h1m1 0h1m1 0h1M0 18.5h1m1 0h1m2 0h3m1 0h1m1 0h2m1 0h1m1 0h1m1 0h2m1 0h1m1 0h1m1 0h2m1 0h1M0 19.5h2m1 0h1m5 0h1m1 0h2m1 0h1m2 0h1m2 0h1m1 0h2m1 0h2m1 0h1M1 20.5h1m2 0h3m1 0h1m2 0h2m2 0h1m2 0h8m2 0h1M2 21.5h2m2 0h2m3 0h2m2 0h2m3 0h1m3 0h2M0 22.5h7m3 0h3m4 0h4m1 0h1m1 0h2M0 23.5h1m5 0h1m1 0h6m6 0h1m3 0h2M0 24.5h1m1 0h3m1 0h19M0 25.5h1m1 0h3m1 0h1m4 0h8m8 0h2M0 26.5h1m1 0h3m1 0h2m4 0h3m4 0h4m4 0h2M0 27.5h1m5 0h3m3 0h2m3 0h2m3 0h2m3 0h2M0 28.5h7m1 0h2m2 0h2m2 0h1m2 0h2m2 0h2m2 0h2"/></svg>
